<svg width="73" height="81" viewBox="0 0 73 81" fill="none" xmlns="http://www.w3.org/2000/svg">
<path d="M36.4964 0C33.6123 0 31.2822 2.2623 31.2822 5.0625V8.1C19.3873 10.4414 10.4253 20.6613 10.4253 32.9062V35.8805C10.4253 43.316 7.60638 50.4984 2.52252 56.0672L1.31673 57.3803C-0.0520023 58.8674 -0.377891 61.0031 0.453125 62.8225C1.28414 64.6418 3.158 65.8125 5.2111 65.8125H67.7817C69.8348 65.8125 71.6924 64.6418 72.5397 62.8225C73.387 61.0031 73.0448 58.8674 71.6761 57.3803L70.4703 56.0672C65.3864 50.4984 62.5675 43.3318 62.5675 35.8805V32.9062C62.5675 20.6613 53.6056 10.4414 41.7106 8.1V5.0625C41.7106 2.2623 39.3805 0 36.4964 0ZM43.8778 78.0416C45.8331 76.1432 46.9248 73.5645 46.9248 70.875H36.4964H26.068C26.068 73.5645 27.1597 76.1432 29.115 78.0416C31.0704 79.94 33.7263 81 36.4964 81C39.2665 81 41.9224 79.94 43.8778 78.0416Z" fill="#D4B46A"/>
</svg>
