<svg width="34" height="33" viewBox="0 0 34 33" fill="none" xmlns="http://www.w3.org/2000/svg">
<path d="M34 16.5615C34 7.41384 26.3898 0 17 0C7.61016 0 0 7.41384 0 16.5615C0 24.3246 5.4918 30.8457 12.8961 32.6377V21.6205H9.38984V16.5615H12.8961V14.3813C12.8961 8.74652 15.5125 6.13292 21.1969 6.13292C22.2727 6.13292 24.132 6.33993 24.8957 6.54695V11.1272C24.4973 11.0884 23.8 11.0625 22.9301 11.0625C20.141 11.0625 19.0652 12.0912 19.0652 14.763V16.5615H24.6168L23.6605 21.6205H19.0586V33C27.4789 32.0102 34 25.0298 34 16.5615Z" fill="#D4B46A"/>
</svg>
