<svg width="34" height="33" viewBox="0 0 34 33" fill="none" xmlns="http://www.w3.org/2000/svg">
<path d="M31.5714 0H2.42098C1.08527 0 0 1.06808 0 2.37924V30.6208C0 31.9319 1.08527 33 2.42098 33H31.5714C32.9071 33 34 31.9319 34 30.6208V2.37924C34 1.06808 32.9071 0 31.5714 0ZM10.2759 28.2857H5.23661V12.5371H10.2835V28.2857H10.2759ZM7.75625 10.3862C6.13973 10.3862 4.83437 9.11183 4.83437 7.55022C4.83437 5.98862 6.13973 4.71429 7.75625 4.71429C9.36518 4.71429 10.6781 5.98862 10.6781 7.55022C10.6781 9.1192 9.37277 10.3862 7.75625 10.3862ZM29.1656 28.2857H24.1263V20.625C24.1263 18.7982 24.0884 16.4484 21.508 16.4484C18.8821 16.4484 18.4799 18.4373 18.4799 20.4924V28.2857H13.4406V12.5371H18.275V14.6879H18.3433C19.0187 13.4504 20.6656 12.1467 23.117 12.1467C28.217 12.1467 29.1656 15.4098 29.1656 19.6527V28.2857Z" fill="#D4B46A"/>
</svg>
