<svg width="31" height="28" viewBox="0 0 31 28" fill="none" xmlns="http://www.w3.org/2000/svg">
<path d="M0 2.33333C0 1.04271 0.989509 0 2.21429 0H28.7857C30.0105 0 31 1.04271 31 2.33333C31 3.62396 30.0105 4.66667 28.7857 4.66667H2.21429C0.989509 4.66667 0 3.62396 0 2.33333ZM0 14C0 12.7094 0.989509 11.6667 2.21429 11.6667H28.7857C30.0105 11.6667 31 12.7094 31 14C31 15.2906 30.0105 16.3333 28.7857 16.3333H2.21429C0.989509 16.3333 0 15.2906 0 14ZM31 25.6667C31 26.9573 30.0105 28 28.7857 28H2.21429C0.989509 28 0 26.9573 0 25.6667C0 24.376 0.989509 23.3333 2.21429 23.3333H28.7857C30.0105 23.3333 31 24.376 31 25.6667Z" fill="#0FBFB0"/>
</svg>
