<svg width="25" height="24" viewBox="0 0 25 24" fill="none" xmlns="http://www.w3.org/2000/svg">
<path d="M8.0514 1.15413C7.67544 0.282295 6.68428 -0.181748 5.73705 0.066679L1.44037 1.19163C0.590794 1.41662 0 2.15721 0 3.00092C0 14.5973 9.79449 24 21.874 24C22.7529 24 23.5244 23.4328 23.7587 22.6173L24.9305 18.4924C25.1893 17.5831 24.7059 16.6316 23.7978 16.2707L19.1105 14.3957C18.3146 14.077 17.3918 14.2973 16.8498 14.9395L14.8773 17.2503C11.4399 15.6894 8.65685 13.0177 7.03094 9.71782L9.43806 7.82884C10.107 7.30386 10.3365 6.42265 10.0044 5.65862L8.0514 1.15882V1.15413Z" fill="#0FBFB0"/>
</svg>
