<svg width="34" height="33" viewBox="0 0 34 33" fill="none" xmlns="http://www.w3.org/2000/svg">
<path d="M34 13.53C30.6576 13.5361 27.3975 12.65 24.6804 10.9968V22.5221C24.6796 24.6567 23.9115 26.7402 22.4788 28.4939C21.0461 30.2476 19.0171 31.588 16.6632 32.3358C14.3093 33.0836 11.7427 33.2031 9.30669 32.6784C6.87065 32.1537 4.6813 31.0097 3.03146 29.3995C1.38162 27.7893 0.349937 25.7897 0.0744012 23.668C-0.201135 21.5463 0.292608 19.4038 1.48959 17.5269C2.68658 15.65 4.52974 14.1283 6.77258 13.1652C9.01541 12.2021 11.551 11.8437 14.0402 12.1377V17.9326C12.902 17.6283 11.6797 17.6372 10.5478 17.9581C9.41594 18.2789 8.43235 18.8953 7.7375 19.7192C7.04265 20.5432 6.67207 21.5325 6.67867 22.546C6.68526 23.5595 7.0687 24.5452 7.77423 25.3626C8.47976 26.18 9.47131 26.7871 10.6073 27.0973C11.7433 27.4075 12.9656 27.4049 14.0998 27.0899C15.2339 26.7749 16.2219 26.1637 16.9227 25.3433C17.6234 24.523 18.0011 23.5356 18.0018 22.5221V0H24.6804C24.6766 0.479749 24.7249 0.958772 24.8246 1.431C25.0568 2.48362 25.5394 3.48497 26.2427 4.37383C26.946 5.26269 27.8554 6.0204 28.9152 6.60065C30.4237 7.4469 32.1921 7.89749 34 7.89628V13.53Z" fill="#D4B46A"/>
</svg>
