<svg width="18" height="17" viewBox="0 0 18 17" fill="none" xmlns="http://www.w3.org/2000/svg">
<path d="M6.30098 8.5C7.25591 8.5 8.17173 8.05223 8.84697 7.2552C9.5222 6.45817 9.90155 5.37717 9.90155 4.25C9.90155 3.12283 9.5222 2.04183 8.84697 1.2448C8.17173 0.447767 7.25591 0 6.30098 0C5.34606 0 4.43024 0.447767 3.755 1.2448C3.07977 2.04183 2.70042 3.12283 2.70042 4.25C2.70042 5.37717 3.07977 6.45817 3.755 7.2552C4.43024 8.05223 5.34606 8.5 6.30098 8.5ZM5.01547 10.0938C2.24473 10.0938 0 12.7434 0 16.0139C0 16.5584 0.374121 17 0.835443 17H9.08017C8.99297 16.7078 8.97609 16.3891 9.04079 16.077L9.46273 14.0814C9.54149 13.7063 9.70464 13.3676 9.9353 13.0953L11.0689 11.7572C10.166 10.7279 8.93952 10.0938 7.58368 10.0938H5.01266H5.01547ZM17.2658 7.82598C16.827 7.30801 16.1153 7.30801 15.6737 7.82598L14.8467 8.80215L16.8439 11.1596L17.6709 10.1834C18.1097 9.66543 18.1097 8.82539 17.6709 8.3041L17.2658 7.82598ZM10.5738 13.8457C10.4585 13.9818 10.3769 14.1512 10.3376 14.3404L9.91561 16.3359C9.87623 16.5186 9.92124 16.7078 10.0338 16.8406C10.1463 16.9734 10.3066 17.0266 10.4613 16.9801L12.1519 16.482C12.3094 16.4355 12.4557 16.3393 12.571 16.2031L16.2053 11.91L14.2082 9.55254L10.5738 13.8457Z" fill="#0FBFB0"/>
</svg>
