<svg width="25" height="24" viewBox="0 0 25 24" fill="none" xmlns="http://www.w3.org/2000/svg">
<path d="M25 12.0447C25 5.39188 19.4043 0 12.5 0C5.5957 0 0 5.39188 0 12.0447C0 17.6906 4.03809 22.4332 9.48242 23.7365V15.724H6.9043V12.0447H9.48242V10.4591C9.48242 6.36111 11.4063 4.4603 15.5859 4.4603C16.377 4.4603 17.7441 4.61086 18.3057 4.76142V8.09253C18.0127 8.0643 17.5 8.04548 16.8604 8.04548C14.8096 8.04548 14.0186 8.79357 14.0186 10.7367V12.0447H18.1006L17.3975 15.724H14.0137V24C20.2051 23.2801 25 18.2035 25 12.0447Z" fill="#D4B46A"/>
</svg>
